<svg xmlns="http://www.w3.org/2000/svg" viewBox="0 0 260 260"><g fill="none" stroke-width="2"><path stroke="#f7f7f7" d="m20.17 0-.14 19.12a.97.96-90 0 1-.95.96L0 20.34M39.93 0l.03 19.26a.75.75 0 0 1-.74.75l-18.63.11q-.53.01-.53.54l-.09 17.42q0 1.86 1.86 1.87l17.4.07a.78.77.4 0 1 .77.77V59.5a.5.5 0 0 1-.5.5H20.75a.75.75 0 0 1-.75-.75V40.5q0-.54-.55-.55L0 39.83M60.14 0l-.16 19.46q-.01.54.53.54h18.75a.66.66 0 0 0 .66-.66L79.9 0M100.14 0l-.16 19.46q-.01.54.53.54h18.75a.66.66 0 0 0 .66-.66L119.9 0M140.14 0l-.16 19.46q-.01.54.53.54h18.75a.66.66 0 0 0 .66-.66L159.9 0M180.14 0l-.16 19.46q-.01.54.53.54h18.75a.66.66 0 0 0 .66-.66L199.9 0M220.14 0l-.18 19.45q0 .55.55.55h18.76a.62.62 0 0 0 .62-.62V0M260 19.96l-18.97.03a1.03 1.03 0 0 0-1.03 1.03v18.46q0 .49.48.48l19.52-.09M260 60l-19.01.01a.99.99 0 0 0-.99.99v18.28q0 .57.58.57l19.42.06M260 100.07l-18.78-.05a1.22 1.22 0 0 0-1.22 1.22v18.03q0 .58.58.58l19.42-.11M260 140.03l-18.81-.15q-1.19-.01-1.19 1.18v18.37q0 .53.54.53l19.46-.11M260 180l-19.33.02a.66.66 0 0 0-.66.66l-.02 18.8q0 .49.49.48l19.52-.09M260 220l-19.01.01a.99.99 0 0 0-.99.99v18.48q0 .49.48.48l19.52-.09M239.73 260l.15-19.39q0-.61-.61-.61H221a1 1 0 0 0-1 1v17.98q0 .6.6.66l3.62.36M199.77 260l.21-20.01M199.98 239.99l19.31-.03q.6 0 .6-.6l.07-18.38a.98.98 0 0 0-.98-.98h-17.99a.99.99 0 0 0-.99.99l-.02 19" vector-effect="non-scaling-stroke"/><path stroke="#f7f7f7" d="m199.98 239.99-18.99.01a.99.99 0 0 0-.99.99v18q0 .59.59.65l3.63.36M159.77 260l.21-20.01M159.98 239.99l19.31-.03q.58 0 .59-.58l.12-18.25a1.12 1.12 0 0 0-1.12-1.13h-17.89a.99.99 0 0 0-.99.99l-.02 19M159.98 239.99l-18.99.01a.99.99 0 0 0-.99.99v18q0 .59.59.65l3.63.36M119.77 260l.21-20.01M119.98 239.99l19.31-.03q.58 0 .59-.58l.12-18.25a1.12 1.12 0 0 0-1.12-1.13h-17.89a.99.99 0 0 0-.99.99l-.02 19M119.98 239.99l-18.99.01a.99.99 0 0 0-.99.99v18q0 .59.59.65l3.63.36M79.77 260l.21-20.01M79.98 239.99l19.31-.03q.58 0 .59-.58l.12-18.25a1.12 1.12 0 0 0-1.12-1.13H80.99a.99.99 0 0 0-.99.99l-.02 19M79.98 239.99l-18.99.01a.99.99 0 0 0-.99.99v18q0 .59.59.65l3.63.36M39.77 260l.21-20.03M39.98 239.97l19.31-.01q.6 0 .6-.6l.08-18.37a.99.98 90 0 0-.98-.99h-18a.99.99 0 0 0-.99.99l-.02 18.98" vector-effect="non-scaling-stroke"/><path stroke="#f7f7f7" d="m39.98 239.97-18.35-.07a1.64 1.64 0 0 1-1.63-1.64V221.2a1.13 1.13 0 0 0-1.12-1.13l-18.04-.23a.56.56 0 0 0-.55.4l-.29.98M0 199.82l19.18.14a.67.67 0 0 0 .67-.66l.22-18.43q.01-.8.81-.8l18.08-.04q.69 0 .72-.69l.39-10.81" vector-effect="non-scaling-stroke"/><path stroke="gray" d="M40.07 168.53q7.09-.38 8.15-8.5" vector-effect="non-scaling-stroke"/><path stroke="#f7f7f7" d="m48.22 160.03 12.44-.01" vector-effect="non-scaling-stroke"/><path stroke="gray" d="m60.66 160.02-2.34 7.79q-.18.59.44.64l1.66.13" vector-effect="non-scaling-stroke"/><path stroke="#f7f7f7" d="M60.42 168.58q.18.12.27.31.2.46-.15.81-.81.81-.77 1.99.13 3.9.29 7.86.02.45.47.45h18.78q.56 0 .56-.56l-.09-18.37q0-.68-.65-.88-2.56-.79-5.2.92" vector-effect="non-scaling-stroke"/><path stroke="gray" d="m73.93 161.11-4.06-13.74a2.85 2.84 45 0 0-5.46 0l-2.44 8.33" vector-effect="non-scaling-stroke"/><path stroke="#f7f7f7" d="m61.97 155.7-1.3-.37q-.66-.18-.66-.87l-.09-13.39a1.06 1.06 0 0 0-1.06-1.05l-18.83-.09M40.03 139.93l-.24-7.74" vector-effect="non-scaling-stroke"/><path stroke="#a8a8a9" d="m39.79 132.19 20.49-.05" vector-effect="non-scaling-stroke"/><path stroke="#f7f7f7" d="m60.28 132.14-.3 6.72q-.04 1.1 1.05 1.12l17.92.35q1.05.02 1.05-1.03v-6.52q0-.47.47-.52l1.54-.13" vector-effect="non-scaling-stroke"/><path stroke="#a8a8a9" d="m82.01 132.13 18.32-.03" vector-effect="non-scaling-stroke"/><path stroke="#f7f7f7" d="m100.33 132.1-.38 6.28q-.09 1.6 1.5 1.6l18.02.07a.54.53.5 0 0 .54-.52l.22-7.5" vector-effect="non-scaling-stroke"/><path stroke="#a8a8a9" d="m120.23 132.03 6.48.04" vector-effect="non-scaling-stroke"/><path stroke="#f7f7f7" d="m126.71 132.07 5.84-.01" vector-effect="non-scaling-stroke"/><path stroke="#a8a8a9" d="m132.55 132.06 6.17-.04" vector-effect="non-scaling-stroke"/><path stroke="#f7f7f7" d="m138.72 132.02 1.42.25q.48.09.43.58l-.72 6.29a.83.82-86.5 0 0 .81.92l18.51.18a.76.76 0 0 0 .77-.75l.05-7.54" vector-effect="non-scaling-stroke"/><path stroke="#a8a8a9" d="m159.99 131.95 20.15.23" vector-effect="non-scaling-stroke"/><path stroke="#f7f7f7" d="m180.14 132.18-.16 6.49q-.04 1.3 1.27 1.31l18.21.03q.48 0 .48-.48l-.04-7.41" vector-effect="non-scaling-stroke"/><path stroke="#a8a8a9" d="m199.9 132.12 19.27-.01" vector-effect="non-scaling-stroke"/><path stroke="#f7f7f7" d="M219.17 132.11q1.72 1.09.63 6.43a1.22 1.21-84.2 0 0 1.19 1.46h18.37q.62 0 .62-.61l-.03-18.77q0-.58-.58-.59l-16.89-.2q-2.41-.03-2.51 2.37l-.34 8.03" vector-effect="non-scaling-stroke"/><path stroke="#a8a8a9" d="m219.63 130.23-19.69-.08" vector-effect="non-scaling-stroke"/><path stroke="#f7f7f7" d="M199.94 130.15v-8.9a1.34 1.34 0 0 0-1.42-1.33c-4.86.3-9.57.52-14.21.17q-1.91-.14-3.78.44-.48.15-.49.66l-.29 8.74" vector-effect="non-scaling-stroke"/><path stroke="#a8a8a9" d="m179.75 129.93-19.76.29" vector-effect="non-scaling-stroke"/><path stroke="#f7f7f7" d="M159.99 130.22v-8.73a1.19 1.19 0 0 0-1.18-1.19l-17.31-.16a1.55 1.54-88.3 0 0-1.56 1.48l-.37 8.62" vector-effect="non-scaling-stroke"/><path stroke="#a8a8a9" d="m139.57 130.24-19.96.01" vector-effect="non-scaling-stroke"/><path stroke="#f7f7f7" d="M119.61 130.25q.82-4.85.08-9.72-.07-.51-.59-.51-3.11-.05-6.18-.04c-3.39.01-8.18-.85-12.62.43q-.49.14-.49.65l.07 9.24" vector-effect="non-scaling-stroke"/><path stroke="#a8a8a9" d="m99.88 130.3-14.87-.21" vector-effect="non-scaling-stroke"/><path stroke="#f7f7f7" d="m85.01 130.09-4.66-.09q-.44-.01-.43-.44l.12-7.9a1.64 1.64 0 0 0-1.63-1.66l-17.11-.11a1.3 1.29-.2 0 0-1.3 1.3l.09 8.76" vector-effect="non-scaling-stroke"/><path stroke="#a8a8a9" d="m60.09 129.95-20.24.05" vector-effect="non-scaling-stroke"/><path stroke="#f7f7f7" d="m39.85 130 .31-9.14a.88.87.9 0 0-.88-.9l-18.78.06a.48.48 0 0 0-.48.48l-.07 18.54a.96.96 0 0 0 .96.96l19.12-.07M40.03 139.93l.25 5.79" vector-effect="non-scaling-stroke"/><path stroke="gray" d="m40.28 145.72-7.22.05q-.53 0-.53.53v14.6" vector-effect="non-scaling-stroke"/><path stroke="#f7f7f7" d="M32.53 160.9q-5.9-1.31-11.03-.85-1.8.16-1.77-1.64l.28-17.3a1.01 1.01 0 0 0-1.02-1.02L0 140.24M0 119.8l19.35.16a.64.64 0 0 0 .64-.64L20 100.7a.63.63 0 0 0-.62-.63L.85 99.83a.59.59 0 0 0-.56.41l-.29.98M0 79.8l19.55.13q.42 0 .42-.42l.09-18.47a.97.97 0 0 0-.96-.97L.84 59.84a.57.56-81.2 0 0-.55.41l-.29.97M59.966 20.897a.87.87 0 0 0-.869-.871l-18.22-.032a.87.87 0 0 0-.871.869l-.032 18.26a.87.87 0 0 0 .869.871l18.22.032a.87.87 0 0 0 .871-.869l.032-18.26M99.966 20.897a.87.87 0 0 0-.869-.871l-18.22-.032a.87.87 0 0 0-.871.869l-.032 18.26a.87.87 0 0 0 .869.871l18.22.032a.87.87 0 0 0 .871-.869l.032-18.26M140.002 20.935a.89.89 0 0 0-.887-.893l-18.2-.064a.89.89 0 0 0-.893.887l-.064 18.22a.89.89 0 0 0 .887.893l18.2.064a.89.89 0 0 0 .893-.887l.064-18.22M179.966 20.897a.87.87 0 0 0-.869-.871l-18.22-.032a.87.87 0 0 0-.871.869l-.032 18.26a.87.87 0 0 0 .869.871l18.22.032a.87.87 0 0 0 .871-.869l.032-18.26M219.966 20.897a.87.87 0 0 0-.869-.871l-18.22-.032a.87.87 0 0 0-.871.869l-.032 18.26a.87.87 0 0 0 .869.871l18.22.032a.87.87 0 0 0 .871-.869l.032-18.26M79.99 60.1l.02 19.47q0 .56.57.56l18.79-.12q.63 0 .63-.63V60.6a.64.64 0 0 0-.64-.64l-19.37.14M79.99 60.1l-.06-19.43a.67.67 0 0 0-.67-.67H61a1 1 0 0 0-1 1v18.49q0 .53.52.53l19.47.08M120.6 59.89a.6.6 0 0 1-.6-.6V40.6a.6.6 0 0 0-.6-.6h-18.8a.6.6 0 0 0-.6.6v18.8a.6.6 0 0 0 .6.6h18.8a.6.6 0 0 1 .6.6v18.89a.6.6 0 0 0 .6.6l18.76-.08a.6.6 0 0 0 .6-.6l.06-18.77a.6.6 0 0 0-.6-.6l-18.82-.15M160.016 40.788a.77.77 0 0 0-.769-.772l-18.46-.032a.77.77 0 0 0-.77.769l-.033 18.46a.77.77 0 0 0 .769.77l18.46.033a.77.77 0 0 0 .77-.769l.033-18.46M199.984 40.833a.85.85 0 0 0-.852-.849l-18.3.032a.85.85 0 0 0-.848.852l.032 18.3a.85.85 0 0 0 .852.848l18.3-.032a.85.85 0 0 0 .848-.852l-.032-18.3M220.13 80.21l.1 11.06" vector-effect="non-scaling-stroke"/><path stroke="#ea9194" d="M220.23 91.27c-7.97-.09-12.88-1.03-18.51 2.8" vector-effect="non-scaling-stroke"/><path stroke="#f7f7f7" d="M201.72 94.07q-2.79-5.29-1.43-12.67a1.09 1.09 0 0 0-1.06-1.29l-17.99-.18a1.3 1.3 0 0 0-1.32 1.33l.33 17.21a1.63 1.62 89.1 0 0 1.63 1.59l15.83-.02" vector-effect="non-scaling-stroke"/><path stroke="#ea9194" d="M197.71 100.04c-3.34 17.85 15.95 16.77 26.79 15.58q.54-.06.82-.53l1.77-2.95q.36-.61-.34-.62c-6.86-.06-20.51 2.29-24.11-4.69a.72.71 76.4 0 1 .63-1.04l18.95-.06a1.26 1.24-64.5 0 0 .8-.29q1.7-1.41 2.2-4.11" vector-effect="non-scaling-stroke"/><path stroke="#f7f7f7" d="M225.22 101.33q6.05-2.05 13.81-1.19a.75.74 3.5 0 0 .83-.73l.19-18.65a.7.69.4 0 0-.7-.7l-19.22.15M220.13 80.21l-.06-19.55q0-.66.66-.66h18.62a.66.66 0 0 0 .66-.67l-.04-18.72q-.01-.61-.61-.61h-18.11Q220 40 220 41.25v18.27q0 .53-.52.52l-18.29-.15q-1.19-.01-1.19 1.17v18.42q0 .48.48.49l19.65.24" vector-effect="non-scaling-stroke"/><path stroke="#e2898c" d="m225.22 101.33-22.25-.12q-.42 0-.27-.4c2.9-7.55 14.91-5.36 21.29-5.29a.76.75 15.8 0 0 .64-.35l1.99-3.23q.39-.64-.35-.64l-6.04-.03M201.72 94.07q-2.67 2.44-4.01 5.97" vector-effect="non-scaling-stroke"/><path stroke="#f7f7f7" d="M60.023 60.595a.6.6 0 0 0-.598-.602l-18.78-.066a.6.6 0 0 0-.602.598l-.066 18.86a.6.6 0 0 0 .598.602l18.78.066a.6.6 0 0 0 .602-.598l.066-18.86" vector-effect="non-scaling-stroke"/><path stroke="#ea9194" d="M140.92 96.06c-3.87 5.82-3.1 12.82 2.33 17.14 4.6 3.65 11.92 2.86 17.68 2.78" vector-effect="non-scaling-stroke"/><path stroke="#f7f7f7" d="M160.93 115.98q-1.25 2.35-.33 3.69a.74.73 69.6 0 0 .69.32q8.14-.93 16.26.02a1.58 1.57-2.1 0 0 1.73-1.86l-.42-2.15" vector-effect="non-scaling-stroke"/><path stroke="#ea9194" d="m178.86 116 16.34-.32q.47-.01.72-.41l1.77-2.88a.58.58 0 0 0-.49-.89h-20.79a.59.59 0 0 1-.59-.59l-.1-18.93q-.01-.73-.74-.73h-3.48q-.52 0-.65.5-.32 1.2.05 2.5" vector-effect="non-scaling-stroke"/><path stroke="#f7f7f7" d="m170.9 94.25-.15 6.25q-.01.53-.52.37-4.74-1.57-9.8-.4a1.15 1.15 0 0 0-.85 1.41q1.29 4.94-1.01 9.63" vector-effect="non-scaling-stroke"/><path stroke="#ea9194" d="M158.57 111.51c-3.57.02-8.23.54-11.14-1.07-5.58-3.08-5.44-11.14.31-13.85 3.77-1.78 13.2-.99 17.69-1.18q.6-.03.86-.57l1.46-3.03a.46.45 12.8 0 0-.42-.65l-7.47.09" vector-effect="non-scaling-stroke"/><path stroke="#f7f7f7" d="m159.86 91.25.11-10.42q0-.83.84-.83h17.78a1.41 1.41 0 0 0 1.41-1.41V60.67a.65.64 90 0 0-.64-.65l-18.58-.09a.79.78-90 0 0-.78.79v18.81q0 .54-.53.53l-18.05-.21q-1.13-.01-1.26 1.11-.94 8.22.76 15.1" vector-effect="non-scaling-stroke"/><path stroke="#e2898c" d="M159.86 91.25c-7.83-.08-13.98-.92-18.94 4.81M158.57 111.51l9.24.06a.44.44 0 0 1 .38.66l-1.74 3.05a.88.87-76.2 0 1-.72.44l-4.8.26M178.86 116l-5.89-.2a2.08 2.08 0 0 1-2.01-2.07l-.06-19.48" vector-effect="non-scaling-stroke"/><path stroke="#ea9194" d="M32.79 100.3c-1.72 17.29 13.15 16.09 25.02 15.58 8.08-.34 13.09-3.06 14.3-11.4" vector-effect="non-scaling-stroke"/><path stroke="#f7f7f7" d="M72.11 104.48q.72-1.04 2.65-.69" vector-effect="non-scaling-stroke"/><path stroke="#ea9194" d="M74.76 103.79v11.44q0 .45.45.47l3.33.15a.88.88 0 0 0 .92-.88l.12-18.77q0-.6.6-.63c5.22-.22 10.34.16 15.54.16 3.86 0 5.18 5.44 2.05 7.14-2.64 1.44-11.62.63-14.88.57a.4.4 0 0 0-.27.7l13.42 11.51a.8.77 65.5 0 0 .48.19l5.72.22a.5.5 0 0 0 .34-.88l-8.11-6.66a.21.21 0 0 1 .12-.37q8.5-.41 9.76-7.93" vector-effect="non-scaling-stroke"/><path stroke="#f7f7f7" d="M104.35 100.22q5.78-1.07 9.88.64" vector-effect="non-scaling-stroke"/><path stroke="#ea9194" d="m114.23 100.86-8.97 13.9a.78.78 0 0 0 .72 1.2l3.87-.29q.59-.04.91-.54l11.25-17.62a.87.87 0 0 1 1.48.01l5.43 8.87a.56.56 0 0 1-.48.86h-10.89q-.49 0-.35.47.78 2.55 3 3.87" vector-effect="non-scaling-stroke"/><path stroke="#f7f7f7" d="m120.2 111.59-.14 7.65q-.01.65.64.65l17.88.05q.65 0 .75-.65.23-1.46-.79-3.35" vector-effect="non-scaling-stroke"/><path stroke="#ea9194" d="M138.54 115.94q1.27.26 1.52-.13a1.22.98-47.8 0 0 .07-1.2q-7.1-11-14.26-21.75-1.87-2.82-5.47-1.17" vector-effect="non-scaling-stroke"/><path stroke="#f7f7f7" d="m120.4 91.69-.29-10.83a.89.89 0 0 0-.89-.86h-18.47a.7.7 0 0 0-.7.65l-.8 11.06" vector-effect="non-scaling-stroke"/><path stroke="#ea9194" d="m99.25 91.71-19.45-.36" vector-effect="non-scaling-stroke"/><path stroke="#f7f7f7" d="m79.8 91.35.17-10.62a.72.72 0 0 0-.72-.73H61.02q-.45 0-.53.44-1.01 5.39-.16 10.84" vector-effect="non-scaling-stroke"/><path stroke="#ea9194" d="M60.33 91.28q-10.1-.48-19.92.62" vector-effect="non-scaling-stroke"/><path stroke="#f7f7f7" d="m40.41 91.9-.3-10.65a1.25 1.25 0 0 0-1.24-1.22l-17.83-.11A1.04 1.04 0 0 0 20 80.96v18.53q0 .6.61.61l12.18.2" vector-effect="non-scaling-stroke"/><path stroke="#e2898c" d="M40.41 91.9q-5.67 3.02-7.62 8.4M79.8 91.35l-4.5-.07q-.53-.01-.53.52l-.01 11.99M72.11 104.48q-.37-11.71-11.78-13.2M120.4 91.69l-6.17 9.17M104.35 100.22q0-5.59-5.1-8.51M138.54 115.94c-3.94.91-4.03-1.77-6.01-4.03a1.14 1.14 0 0 0-.86-.39l-11.47.07" vector-effect="non-scaling-stroke"/><path stroke="gray" d="m88.5 159.84.03 8.14q0 .52.52.52h2.76q.69 0 .69-.69l.04-7.45" vector-effect="non-scaling-stroke"/><path stroke="#f7f7f7" d="m92.54 160.36 6.68-.37q.48-.03.56-.5.97-5.74-1.01-9.91" vector-effect="non-scaling-stroke"/><path stroke="gray" d="M98.77 149.58q-.9-1.63-.36-3.82" vector-effect="non-scaling-stroke"/><path stroke="#f7f7f7" d="M98.41 145.76q2.7-2.14 1.24-5.32-.2-.44-.69-.44H81.37a.97.96-89.4 0 0-.96.95L80 157.83a2.19 2.19 0 0 0 2.27 2.24l6.23-.23" vector-effect="non-scaling-stroke"/><path stroke="#777" d="m98.41 145.76-15.05.01a.61.61 0 0 0-.61.65l.2 2.85q.04.48.52.48h4.52q.5 0 .5.5l.01 9.59" vector-effect="non-scaling-stroke"/><path stroke="#777" d="m98.77 149.58-5.59.21q-.6.02-.61.63l-.03 9.94" vector-effect="non-scaling-stroke"/><path stroke="gray" d="m117.92 150.51-1.34-4.19q-.18-.57-.78-.57h-3.09q-.65 0-.84.62l-4.64 15.37" vector-effect="non-scaling-stroke"/><path stroke="#f7f7f7" d="M107.23 161.74q-1.51.24-2.1-.89-.24-.47-.77-.52l-3.7-.31q-.62-.05-.62.57l-.06 18.95q0 .56.56.56l18.33.02q.98 0 .98-.98l-.04-10.48" vector-effect="non-scaling-stroke"/><path stroke="gray" d="m119.81 168.66 2.68-.21q.62-.05.45-.66l-2.13-7.6" vector-effect="non-scaling-stroke"/><path stroke="#f7f7f7" d="m120.81 160.19 12.7-.4" vector-effect="non-scaling-stroke"/><path stroke="gray" d="m133.51 159.79.01 8.02q0 .59.6.6l5.82.08" vector-effect="non-scaling-stroke"/><path stroke="#f7f7f7" d="m139.94 168.49.09 11.03a.48.48 0 0 0 .48.48h18.51q.45 0 .52-.45.85-5.56.02-11.38" vector-effect="non-scaling-stroke"/><path stroke="gray" d="M159.56 168.17q1.99.61 3.32.25.51-.13.65-.63l.99-3.51q.15-.53.7-.53h5.7a.89.89 0 0 1 .86.67l.91 3.52a.74.74 0 0 0 .72.56h3.09q.66 0 .47-.63l-2.15-7.33" vector-effect="non-scaling-stroke"/><path stroke="#f7f7f7" d="M174.82 160.54q2.07-1.05 4.2-.05.47.21.61.71c1.02 3.69.35 8.34.43 11.11q.1 3.43-.23 6.96-.08.77.69.77l18.68.05q.55 0 .53-.56l-.48-11.7" vector-effect="non-scaling-stroke"/><path stroke="gray" d="M199.25 167.83q5.26-5.25 1.08-10.82a1.18 1.17-8.3 0 0-.54-.4l-7.83-2.65a2.13 2.13 0 0 1-1.12-3.15c1.39-2.21 6.76-2.44 6.65 1.16a.52.52 0 0 0 .52.53h2.96a.54.53-4.6 0 0 .53-.62c-1.62-10.08-15.84-8.23-14.48 1.58.69 4.94 5.18 4.92 8.86 6.23 7.38 2.63-3.45 9.5-5.49 2.36q-.14-.49-.65-.53l-3.08-.24" vector-effect="non-scaling-stroke"/><path stroke="#f7f7f7" d="m186.66 161.28-2.43-1.08a1.03.99-39.5 0 0-.69-.05q-1.52.42-2.99-.1a.83.82-80.6 0 1-.55-.78v-18.02a1.25 1.25 0 0 0-1.25-1.25h-17.5a1.22 1.21-.9 0 0-1.22 1.25l.44 16.74a1.79 1.79 0 0 1-1.71 1.84l-9.54.45" vector-effect="non-scaling-stroke"/><path stroke="gray" d="M149.22 160.28q-.46-2.13-2.17-3.63a.57.57 0 0 1-.07-.77c4.81-6.38-.67-10.78-7.16-10.06" vector-effect="non-scaling-stroke"/><path stroke="#f7f7f7" d="M139.82 145.82q.96-3.23-.17-5.39-.22-.42-.68-.42h-18.24q-.51 0-.56.51-.47 4.64-.38 9.25.02.98-1.87.74" vector-effect="non-scaling-stroke"/><path stroke="#777" d="m139.82 145.82-5.69.03q-.61 0-.61.6l-.01 13.34M120.81 160.19l-2.89-9.68M119.81 168.66q-1.55-1.2-1.93-4.37-.07-.54-.62-.54h-5.99q-.52 0-.67.5l-1.05 3.56q-.2.68-.91.68h-2.75q-.69 0-.49-.66l1.83-6.09M186.66 161.28c-.11 7.24 7.06 9.21 12.59 6.55M174.82 160.54l-3.87-13.12a2.84 2.84 0 0 0-5.46.02l-5.93 20.73M139.94 168.49c2.14-.2 4.66.12 6.44-1.14q3.36-2.37 2.84-7.07" vector-effect="non-scaling-stroke"/><path stroke="#f7f7f7" d="m220.04 168.51-.02 11q0 .49.48.49h18.72a.78.78 0 0 0 .78-.78v-18.49a.53.53 0 0 0-.52-.53l-11.18-.35q-.5-.02-.88-.33l-1.21-.97" vector-effect="non-scaling-stroke"/><path stroke="gray" d="m226.21 158.55.02-3.29q.01-.53-.53-.55l-8.22-.28q-.49-.02-.49-.51l.02-3.52a.66.66 0 0 1 .66-.65h8.83q.5 0 .5-.5v-3q0-.5-.5-.5h-12.62q-.87 0-.85.87l.3 21.43q.01.43.44.44l6.27.02" vector-effect="non-scaling-stroke"/><path stroke="#777" d="m226.21 158.55-8.72.05q-.54 0-.53.55l.06 4.61q.01.49.49.49h9.24q.75 0 .75.75v2.95q0 .56-.56.56h-6.9" vector-effect="non-scaling-stroke"/><path stroke="#f7f7f7" d="M59.976 180.947a.92.92 0 0 0-.919-.921l-18.12-.032a.92.92 0 0 0-.921.919l-.032 18.16a.92.92 0 0 0 .919.921l18.12.032a.92.92 0 0 0 .921-.919l.032-18.16M100.027 180.992a.94.94 0 0 0-.935-.944l-18.1-.095a.94.94 0 0 0-.944.935l-.095 18.12a.94.94 0 0 0 .935.944l18.1.095a.94.94 0 0 0 .944-.935l.095-18.12M139.982 180.895a.86.86 0 0 0-.857-.863l-18.24-.064a.86.86 0 0 0-.863.857l-.064 18.28a.86.86 0 0 0 .857.863l18.24.064a.86.86 0 0 0 .863-.857l.064-18.28M179.982 180.905a.87.87 0 0 0-.867-.873l-18.22-.064a.87.87 0 0 0-.873.867l-.064 18.26a.87.87 0 0 0 .867.873l18.22.064a.87.87 0 0 0 .873-.867l.064-18.26M219.992 180.735a.7.7 0 0 0-.697-.703l-18.54-.064a.7.7 0 0 0-.702.697l-.065 18.6a.7.7 0 0 0 .697.703l18.54.064a.7.7 0 0 0 .703-.697l.064-18.6M39.984 200.833a.85.85 0 0 0-.852-.849l-18.3.032a.85.85 0 0 0-.848.852l.032 18.3a.85.85 0 0 0 .852.848l18.3-.032a.85.85 0 0 0 .848-.852l-.032-18.3M80.016 200.868a.85.85 0 0 0-.849-.852l-18.3-.032a.85.85 0 0 0-.851.849l-.032 18.3a.85.85 0 0 0 .849.851l18.3.032a.85.85 0 0 0 .851-.849l.032-18.3M120.016 200.898a.88.88 0 0 0-.879-.882l-18.24-.032a.88.88 0 0 0-.881.879l-.032 18.24a.88.88 0 0 0 .879.881l18.24.032a.88.88 0 0 0 .881-.879l.032-18.24M160.016 200.898a.88.88 0 0 0-.879-.882l-18.24-.032a.88.88 0 0 0-.881.879l-.032 18.24a.88.88 0 0 0 .879.881l18.24.032a.88.88 0 0 0 .881-.879l.032-18.24M200.016 200.898a.88.88 0 0 0-.879-.882l-18.24-.032a.88.88 0 0 0-.881.879l-.032 18.24a.88.88 0 0 0 .879.881l18.24.032a.88.88 0 0 0 .881-.879l.032-18.24M239.984 200.803a.82.82 0 0 0-.822-.819l-18.36.032a.82.82 0 0 0-.818.822l.032 18.36a.82.82 0 0 0 .822.818l18.36-.032a.82.82 0 0 0 .818-.822l-.032-18.36" vector-effect="non-scaling-stroke"/><path stroke="#e2898c" d="M67.281 103.172a7.43 7.43 0 0 0-7.404-7.456l-14.98-.052a7.43 7.43 0 0 0-7.455 7.404l-.003.84a7.43 7.43 0 0 0 7.404 7.456l14.98.052a7.43 7.43 0 0 0 7.455-7.404l.003-.84" vector-effect="non-scaling-stroke"/><path stroke="#a09fa0" d="m119.61 130.25-19.73.05M39.85 130l-6.73.12q-.66.01-.63.67l.04.76q.03.61.64.62l6.62.02M85.01 130.09l-24.92-.14M219.17 132.11l7.8-.09a.57.57 0 0 0 .53-.74l-.14-.45q-.18-.57-.78-.57l-6.95-.03M159.99 130.22l-20.42.02M199.94 130.15l-20.19-.22M199.9 132.12l-19.76.06M159.99 131.95l-21.27.07M132.55 132.06q-2.89-.74-5.84.01M120.23 132.03l-19.9.07M82.01 132.13l-21.73.01" vector-effect="non-scaling-stroke"/><path stroke="#777" d="m32.53 160.9.07 6.98q0 .6.6.6l6.87.05" vector-effect="non-scaling-stroke"/><path stroke="#f7f7f7" d="m0 180.18 18.63-.14a1.34 1.33-.2 0 0 1.33-1.33l.06-18.18q0-.54-.55-.55L0 159.83" vector-effect="non-scaling-stroke"/><path stroke="#777" d="m61.97 155.7-1.31 4.32M48.22 160.03c1.06-6.11-.15-13.92-7.94-14.31" vector-effect="non-scaling-stroke"/><path stroke="gray" d="m36.28 150.4-.02 13.38a.71.71 0 0 0 .71.71l3.08.01a6 4.45-89.9 0 0 4.46-5.99v-2.8a6 4.45-89.9 0 0-4.44-6.01l-3.08-.01a.71.71 0 0 0-.71.71" vector-effect="non-scaling-stroke"/><path stroke="#777" d="m73.93 161.11 1.88 6.67a.56.56 0 0 1-.54.72H72.3a.7.69 83 0 1-.67-.53l-.85-3.66q-.13-.56-.71-.56h-6.08a.64.63-86.4 0 0-.63.56q-.52 4.5-2.94 4.27" vector-effect="non-scaling-stroke"/><path stroke="gray" d="M64.85 159.35a.32.32 0 0 0 .31.41l3.87-.01a.32.32 0 0 0 .31-.4l-1.95-7.21a.32.32 0 0 0-.62 0l-1.92 7.21M111.98 159.35a.32.32 0 0 0 .3.4l3.8.03a.32.32 0 0 0 .31-.4l-1.85-7.36a.32.32 0 0 0-.62-.01l-1.94 7.34M144.605 150.827a1.05 1.05 0 0 0-1.054-1.046l-5.06.018a1.05 1.05 0 0 0-1.046 1.053l.01 2.8a1.05 1.05 0 0 0 1.054 1.047l5.06-.018a1.05 1.05 0 0 0 1.046-1.054l-.01-2.8M137.25 159.51l.07 4.08a.98.98 0 0 0 .99.96l4.14-.07a2.88 2.86 89 0 0 2.81-2.93v-.28a2.88 2.86 89 0 0-2.91-2.83l-4.14.07a.98.98 0 0 0-.96 1" vector-effect="non-scaling-stroke"/><path stroke="#777" d="M165.79 159.57a.33.33 0 0 0 .31.42l4.06.02a.33.33 0 0 0 .32-.41l-1.98-7.46a.33.33 0 0 0-.63 0l-2.08 7.43" vector-effect="non-scaling-stroke"/><path stroke="#f7f7f7" d="m21.72 260-1.19-.3q-.53-.13-.53-.68v-18.16a.98.98 0 0 0-.97-.98L0 239.78" vector-effect="non-scaling-stroke"/></g><path fill="#fff" d="M0 0h20.17l-.14 19.12a.97.96-90 0 1-.95.96L0 20.34V0Z"/><path fill="#eee" d="M20.17 0h19.76l.03 19.26a.75.75 0 0 1-.74.75l-18.63.11q-.53.01-.53.54l-.09 17.42q0 1.86 1.86 1.87l17.4.07a.78.77.4 0 1 .77.77V59.5a.5.5 0 0 1-.5.5H20.75a.75.75 0 0 1-.75-.75V40.5q0-.54-.55-.55L0 39.83V20.34l19.08-.26a.97.96-90 0 0 .95-.96L20.17 0Z"/><path fill="#fff" d="M39.93 0h20.21l-.16 19.46q-.01.54.53.54h18.75a.66.66 0 0 0 .66-.66L79.9 0h20.24l-.16 19.46q-.01.54.53.54h18.75a.66.66 0 0 0 .66-.66L119.9 0h20.24l-.16 19.46q-.01.54.53.54h18.75a.66.66 0 0 0 .66-.66L159.9 0h20.24l-.16 19.46q-.01.54.53.54h18.75a.66.66 0 0 0 .66-.66L199.9 0h20.24l-.18 19.45q0 .55.55.55h18.76a.62.62 0 0 0 .62-.62V0H260v19.96l-18.97.03a1.03 1.03 0 0 0-1.03 1.03v18.46q0 .49.48.48l19.52-.09V60l-19.01.01a.99.99 0 0 0-.99.99v18.28q0 .57.58.57l19.42.06v20.16l-18.78-.05a1.22 1.22 0 0 0-1.22 1.22v18.03q0 .58.58.58l19.42-.11v20.29l-18.81-.15q-1.19-.01-1.19 1.18v18.37q0 .53.54.53l19.46-.11V180l-19.33.02a.66.66 0 0 0-.66.66l-.02 18.8q0 .49.49.48l19.52-.09V220l-19.01.01a.99.99 0 0 0-.99.99v18.48q0 .49.48.48l19.52-.09V260h-20.27l.15-19.39q0-.61-.61-.61H221a1 1 0 0 0-1 1v17.98q0 .6.6.66l3.62.36h-24.45l.21-20.01 19.31-.03q.6 0 .6-.6l.07-18.38a.98.98 0 0 0-.98-.98h-17.99a.99.99 0 0 0-.99.99l-.02 19-18.99.01a.99.99 0 0 0-.99.99v18q0 .59.59.65l3.63.36h-24.45l.21-20.01 19.31-.03q.58 0 .59-.58l.12-18.25a1.12 1.12 0 0 0-1.12-1.13h-17.89a.99.99 0 0 0-.99.99l-.02 19-18.99.01a.99.99 0 0 0-.99.99v18q0 .59.59.65l3.63.36h-24.45l.21-20.01 19.31-.03q.58 0 .59-.58l.12-18.25a1.12 1.12 0 0 0-1.12-1.13h-17.89a.99.99 0 0 0-.99.99l-.02 19-18.99.01a.99.99 0 0 0-.99.99v18q0 .59.59.65l3.63.36H79.77l.21-20.01 19.31-.03q.58 0 .59-.58l.12-18.25a1.12 1.12 0 0 0-1.12-1.13H80.99a.99.99 0 0 0-.99.99l-.02 19-18.99.01a.99.99 0 0 0-.99.99v18q0 .59.59.65l3.63.36H39.77l.21-20.03 19.31-.01q.6 0 .6-.6l.08-18.37a.99.98 90 0 0-.98-.99h-18a.99.99 0 0 0-.99.99l-.02 18.98-18.35-.07a1.64 1.64 0 0 1-1.63-1.64V221.2a1.13 1.13 0 0 0-1.12-1.13l-18.04-.23a.56.56 0 0 0-.55.4l-.29.98v-21.4l19.18.14a.67.67 0 0 0 .67-.66l.22-18.43q.01-.8.81-.8l18.08-.04q.69 0 .72-.69l.39-10.81q7.09-.38 8.15-8.5l12.44-.01-2.34 7.79q-.18.59.44.64l1.66.13q.18.12.27.31.2.46-.15.81-.81.81-.77 1.99.13 3.9.29 7.86.02.45.47.45h18.78q.56 0 .56-.56l-.09-18.37q0-.68-.65-.88-2.56-.79-5.2.92l-4.06-13.74a2.85 2.84 45 0 0-5.46 0l-2.44 8.33-1.3-.37q-.66-.18-.66-.87l-.09-13.39a1.06 1.06 0 0 0-1.06-1.05l-18.83-.09-.24-7.74 20.49-.05-.3 6.72q-.04 1.1 1.05 1.12l17.92.35q1.05.02 1.05-1.03v-6.52q0-.47.47-.52l1.54-.13 18.32-.03-.38 6.28q-.09 1.6 1.5 1.6l18.02.07a.54.53.5 0 0 .54-.52l.22-7.5 6.48.04 5.84-.01 6.17-.04 1.42.25q.48.09.43.58l-.72 6.29a.83.82-86.5 0 0 .81.92l18.51.18a.76.76 0 0 0 .77-.75l.05-7.54 20.15.23-.16 6.49q-.04 1.3 1.27 1.31l18.21.03q.48 0 .48-.48l-.04-7.41 19.27-.01q1.72 1.09.63 6.43a1.22 1.21-84.2 0 0 1.19 1.46h18.37q.62 0 .62-.61l-.03-18.77q0-.58-.58-.59l-16.89-.2q-2.41-.03-2.51 2.37l-.34 8.03-19.69-.08v-8.9a1.34 1.34 0 0 0-1.42-1.33c-4.86.3-9.57.52-14.21.17q-1.91-.14-3.78.44-.48.15-.49.66l-.29 8.74-19.76.29v-8.73a1.19 1.19 0 0 0-1.18-1.19l-17.31-.16a1.55 1.54-88.3 0 0-1.56 1.48l-.37 8.62-19.96.01q.82-4.85.08-9.72-.07-.51-.59-.51-3.11-.05-6.18-.04c-3.39.01-8.18-.85-12.62.43q-.49.14-.49.65l.07 9.24-14.87-.21-4.66-.09q-.44-.01-.43-.44l.12-7.9a1.64 1.64 0 0 0-1.63-1.66l-17.11-.11a1.3 1.29-.2 0 0-1.3 1.3l.09 8.76-20.24.05.31-9.14a.88.87.9 0 0-.88-.9l-18.78.06a.48.48 0 0 0-.48.48l-.07 18.54a.96.96 0 0 0 .96.96l19.12-.07.25 5.79-7.22.05q-.53 0-.53.53v14.6q-5.9-1.31-11.03-.85-1.8.16-1.77-1.64l.28-17.3a1.01 1.01 0 0 0-1.02-1.02L0 140.24V119.8l19.35.16a.64.64 0 0 0 .64-.64L20 100.7a.63.63 0 0 0-.62-.63L.85 99.83a.59.59 0 0 0-.56.41l-.29.98V79.8l19.55.13q.42 0 .42-.42l.09-18.47a.97.97 0 0 0-.96-.97L.84 59.84a.57.56-81.2 0 0-.55.41l-.29.97V39.83l19.45.12q.55.01.55.55v18.75a.75.75 0 0 0 .75.75H39.5a.5.5 0 0 0 .5-.5V40.79a.78.77.4 0 0-.77-.77l-17.4-.07q-1.86-.01-1.86-1.87l.09-17.42q0-.53.53-.54l18.63-.11a.75.75 0 0 0 .74-.75L39.93 0Zm20.036 20.897a.87.87 0 0 0-.869-.871l-18.22-.032a.87.87 0 0 0-.871.869l-.032 18.26a.87.87 0 0 0 .869.871l18.22.032a.87.87 0 0 0 .871-.869l.032-18.26Zm40 0a.87.87 0 0 0-.869-.871l-18.22-.032a.87.87 0 0 0-.871.869l-.032 18.26a.87.87 0 0 0 .869.871l18.22.032a.87.87 0 0 0 .871-.869l.032-18.26Zm40.036.038a.89.89 0 0 0-.887-.893l-18.2-.064a.89.89 0 0 0-.893.887l-.064 18.22a.89.89 0 0 0 .887.893l18.2.064a.89.89 0 0 0 .893-.887l.064-18.22Zm39.964-.038a.87.87 0 0 0-.869-.871l-18.22-.032a.87.87 0 0 0-.871.869l-.032 18.26a.87.87 0 0 0 .869.871l18.22.032a.87.87 0 0 0 .871-.869l.032-18.26Zm40 0a.87.87 0 0 0-.869-.871l-18.22-.032a.87.87 0 0 0-.871.869l-.032 18.26a.87.87 0 0 0 .869.871l18.22.032a.87.87 0 0 0 .871-.869l.032-18.26ZM79.99 60.1l.02 19.47q0 .56.57.56l18.79-.12q.63 0 .63-.63V60.6a.64.64 0 0 0-.64-.64l-19.37.14-.06-19.43a.67.67 0 0 0-.67-.67H61a1 1 0 0 0-1 1v18.49q0 .53.52.53l19.47.08Zm40.61-.21a.6.6 0 0 1-.6-.6V40.6a.6.6 0 0 0-.6-.6h-18.8a.6.6 0 0 0-.6.6v18.8a.6.6 0 0 0 .6.6h18.8a.6.6 0 0 1 .6.6v18.89a.6.6 0 0 0 .6.6l18.76-.08a.6.6 0 0 0 .6-.6l.06-18.77a.6.6 0 0 0-.6-.6l-18.82-.15Zm39.416-19.102a.77.77 0 0 0-.769-.772l-18.46-.032a.77.77 0 0 0-.77.769l-.033 18.46a.77.77 0 0 0 .769.77l18.46.033a.77.77 0 0 0 .77-.769l.033-18.46Zm39.968.045a.85.85 0 0 0-.852-.849l-18.3.032a.85.85 0 0 0-.848.852l.032 18.3a.85.85 0 0 0 .852.848l18.3-.032a.85.85 0 0 0 .848-.852l-.032-18.3ZM220.13 80.21l.1 11.06c-7.97-.09-12.88-1.03-18.51 2.8q-2.79-5.29-1.43-12.67a1.09 1.09 0 0 0-1.06-1.29l-17.99-.18a1.3 1.3 0 0 0-1.32 1.33l.33 17.21a1.63 1.62 89.1 0 0 1.63 1.59l15.83-.02c-3.34 17.85 15.95 16.77 26.79 15.58q.54-.06.82-.53l1.77-2.95q.36-.61-.34-.62c-6.86-.06-20.51 2.29-24.11-4.69a.72.71 76.4 0 1 .63-1.04l18.95-.06a1.26 1.24-64.5 0 0 .8-.29q1.7-1.41 2.2-4.11 6.05-2.05 13.81-1.19a.75.74 3.5 0 0 .83-.73l.19-18.65a.7.69.4 0 0-.7-.7l-19.22.15-.06-19.55q0-.66.66-.66h18.62a.66.66 0 0 0 .66-.67l-.04-18.72q-.01-.61-.61-.61h-18.11Q220 40 220 41.25v18.27q0 .53-.52.52l-18.29-.15q-1.19-.01-1.19 1.17v18.42q0 .48.48.49l19.65.24ZM60.023 60.595a.6.6 0 0 0-.598-.602l-18.78-.066a.6.6 0 0 0-.602.598l-.066 18.86a.6.6 0 0 0 .598.602l18.78.066a.6.6 0 0 0 .602-.598l.066-18.86ZM140.92 96.06c-3.87 5.82-3.1 12.82 2.33 17.14 4.6 3.65 11.92 2.86 17.68 2.78q-1.25 2.35-.33 3.69a.74.73 69.6 0 0 .69.32q8.14-.93 16.26.02a1.58 1.57-2.1 0 0 1.73-1.86l-.42-2.15 16.34-.32q.47-.01.72-.41l1.77-2.88a.58.58 0 0 0-.49-.89h-20.79a.59.59 0 0 1-.59-.59l-.1-18.93q-.01-.73-.74-.73h-3.48q-.52 0-.65.5-.32 1.2.05 2.5l-.15 6.25q-.01.53-.52.37-4.74-1.57-9.8-.4a1.15 1.15 0 0 0-.85 1.41q1.29 4.94-1.01 9.63c-3.57.02-8.23.54-11.14-1.07-5.58-3.08-5.44-11.14.31-13.85 3.77-1.78 13.2-.99 17.69-1.18q.6-.03.86-.57l1.46-3.03a.46.45 12.8 0 0-.42-.65l-7.47.09.11-10.42q0-.83.84-.83h17.78a1.41 1.41 0 0 0 1.41-1.41V60.67a.65.64 90 0 0-.64-.65l-18.58-.09a.79.78-90 0 0-.78.79v18.81q0 .54-.53.53l-18.05-.21q-1.13-.01-1.26 1.11-.94 8.22.76 15.1ZM32.79 100.3c-1.72 17.29 13.15 16.09 25.02 15.58 8.08-.34 13.09-3.06 14.3-11.4q.72-1.04 2.65-.69v11.44q0 .45.45.47l3.33.15a.88.88 0 0 0 .92-.88l.12-18.77q0-.6.6-.63c5.22-.22 10.34.16 15.54.16 3.86 0 5.18 5.44 2.05 7.14-2.64 1.44-11.62.63-14.88.57a.4.4 0 0 0-.27.7l13.42 11.51a.8.77 65.5 0 0 .48.19l5.72.22a.5.5 0 0 0 .34-.88l-8.11-6.66a.21.21 0 0 1 .12-.37q8.5-.41 9.76-7.93 5.78-1.07 9.88.64l-8.97 13.9a.78.78 0 0 0 .72 1.2l3.87-.29q.59-.04.91-.54l11.25-17.62a.87.87 0 0 1 1.48.01l5.43 8.87a.56.56 0 0 1-.48.86h-10.89q-.49 0-.35.47.78 2.55 3 3.87l-.14 7.65q-.01.65.64.65l17.88.05q.65 0 .75-.65.23-1.46-.79-3.35 1.27.26 1.52-.13a1.22.98-47.8 0 0 .07-1.2q-7.1-11-14.26-21.75-1.87-2.82-5.47-1.17l-.29-10.83a.89.89 0 0 0-.89-.86h-18.47a.7.7 0 0 0-.7.65l-.8 11.06-19.45-.36.17-10.62a.72.72 0 0 0-.72-.73H61.02q-.45 0-.53.44-1.01 5.39-.16 10.84-10.1-.48-19.92.62l-.3-10.65a1.25 1.25 0 0 0-1.24-1.22l-17.83-.11A1.04 1.04 0 0 0 20 80.96v18.53q0 .6.61.61l12.18.2Zm55.71 59.54.03 8.14q0 .52.52.52h2.76q.69 0 .69-.69l.04-7.45 6.68-.37q.48-.03.56-.5.97-5.74-1.01-9.91-.9-1.63-.36-3.82 2.7-2.14 1.24-5.32-.2-.44-.69-.44H81.37a.97.96-89.4 0 0-.96.95L80 157.83a2.19 2.19 0 0 0 2.27 2.24l6.23-.23Zm29.42-9.33-1.34-4.19q-.18-.57-.78-.57h-3.09q-.65 0-.84.62l-4.64 15.37q-1.51.24-2.1-.89-.24-.47-.77-.52l-3.7-.31q-.62-.05-.62.57l-.06 18.95q0 .56.56.56l18.33.02q.98 0 .98-.98l-.04-10.48 2.68-.21q.62-.05.45-.66l-2.13-7.6 12.7-.4.01 8.02q0 .59.6.6l5.82.08.09 11.03a.48.48 0 0 0 .48.48h18.51q.45 0 .52-.45.85-5.56.02-11.38 1.99.61 3.32.25.51-.13.65-.63l.99-3.51q.15-.53.7-.53h5.7a.89.89 0 0 1 .86.67l.91 3.52a.74.74 0 0 0 .72.56h3.09q.66 0 .47-.63l-2.15-7.33q2.07-1.05 4.2-.05.47.21.61.71c1.02 3.69.35 8.34.43 11.11q.1 3.43-.23 6.96-.08.77.69.77l18.68.05q.55 0 .53-.56l-.48-11.7q5.26-5.25 1.08-10.82a1.18 1.17-8.3 0 0-.54-.4l-7.83-2.65a2.13 2.13 0 0 1-1.12-3.15c1.39-2.21 6.76-2.44 6.65 1.16a.52.52 0 0 0 .52.53h2.96a.54.53-4.6 0 0 .53-.62c-1.62-10.08-15.84-8.23-14.48 1.58.69 4.94 5.18 4.92 8.86 6.23 7.38 2.63-3.45 9.5-5.49 2.36q-.14-.49-.65-.53l-3.08-.24-2.43-1.08a1.03.99-39.5 0 0-.69-.05q-1.52.42-2.99-.1a.83.82-80.6 0 1-.55-.78v-18.02a1.25 1.25 0 0 0-1.25-1.25h-17.5a1.22 1.21-.9 0 0-1.22 1.25l.44 16.74a1.79 1.79 0 0 1-1.71 1.84l-9.54.45q-.46-2.13-2.17-3.63a.57.57 0 0 1-.07-.77c4.81-6.38-.67-10.78-7.16-10.06q.96-3.23-.17-5.39-.22-.42-.68-.42h-18.24q-.51 0-.56.51-.47 4.64-.38 9.25.02.98-1.87.74Zm102.12 18-.02 11q0 .49.48.49h18.72a.78.78 0 0 0 .78-.78v-18.49a.53.53 0 0 0-.52-.53l-11.18-.35q-.5-.02-.88-.33l-1.21-.97.02-3.29q.01-.53-.53-.55l-8.22-.28q-.49-.02-.49-.51l.02-3.52a.66.66 0 0 1 .66-.65h8.83q.5 0 .5-.5v-3q0-.5-.5-.5h-12.62q-.87 0-.85.87l.3 21.43q.01.43.44.44l6.27.02ZM59.976 180.947a.92.92 0 0 0-.919-.921l-18.12-.032a.92.92 0 0 0-.921.919l-.032 18.16a.92.92 0 0 0 .919.921l18.12.032a.92.92 0 0 0 .921-.919l.032-18.16Zm40.051.045a.94.94 0 0 0-.935-.944l-18.1-.095a.94.94 0 0 0-.944.935l-.095 18.12a.94.94 0 0 0 .935.944l18.1.095a.94.94 0 0 0 .944-.935l.095-18.12Zm39.955-.097a.86.86 0 0 0-.857-.863l-18.24-.064a.86.86 0 0 0-.863.857l-.064 18.28a.86.86 0 0 0 .857.863l18.24.064a.86.86 0 0 0 .863-.857l.064-18.28Zm40 .01a.87.87 0 0 0-.867-.873l-18.22-.064a.87.87 0 0 0-.873.867l-.064 18.26a.87.87 0 0 0 .867.873l18.22.064a.87.87 0 0 0 .873-.867l.064-18.26Zm40.01-.17a.7.7 0 0 0-.697-.703l-18.54-.064a.7.7 0 0 0-.702.697l-.065 18.6a.7.7 0 0 0 .697.703l18.54.064a.7.7 0 0 0 .703-.697l.064-18.6ZM39.984 200.833a.85.85 0 0 0-.852-.849l-18.3.032a.85.85 0 0 0-.848.852l.032 18.3a.85.85 0 0 0 .852.848l18.3-.032a.85.85 0 0 0 .848-.852l-.032-18.3Zm40.032.035a.85.85 0 0 0-.849-.852l-18.3-.032a.85.85 0 0 0-.851.849l-.032 18.3a.85.85 0 0 0 .849.851l18.3.032a.85.85 0 0 0 .851-.849l.032-18.3Zm40 .03a.88.88 0 0 0-.879-.882l-18.24-.032a.88.88 0 0 0-.881.879l-.032 18.24a.88.88 0 0 0 .879.881l18.24.032a.88.88 0 0 0 .881-.879l.032-18.24Zm40 0a.88.88 0 0 0-.879-.882l-18.24-.032a.88.88 0 0 0-.881.879l-.032 18.24a.88.88 0 0 0 .879.881l18.24.032a.88.88 0 0 0 .881-.879l.032-18.24Zm40 0a.88.88 0 0 0-.879-.882l-18.24-.032a.88.88 0 0 0-.881.879l-.032 18.24a.88.88 0 0 0 .879.881l18.24.032a.88.88 0 0 0 .881-.879l.032-18.24Zm39.968-.095a.82.82 0 0 0-.822-.819l-18.36.032a.82.82 0 0 0-.818.822l.032 18.36a.82.82 0 0 0 .822.818l18.36-.032a.82.82 0 0 0 .818-.822l-.032-18.36Z"/><path fill="#eee" d="M60.14 0H79.9l.02 19.34a.66.66 0 0 1-.66.66H60.51q-.54 0-.53-.54L60.14 0ZM100.14 0h19.76l.02 19.34a.66.66 0 0 1-.66.66h-18.75q-.54 0-.53-.54L100.14 0ZM140.14 0h19.76l.02 19.34a.66.66 0 0 1-.66.66h-18.75q-.54 0-.53-.54L140.14 0ZM180.14 0h19.76l.02 19.34a.66.66 0 0 1-.66.66h-18.75q-.54 0-.53-.54L180.14 0ZM220.14 0h19.75v19.38a.62.62 0 0 1-.62.62h-18.76q-.55 0-.55-.55L220.14 0ZM260 19.96v19.91l-19.52.09q-.48.01-.48-.48V21.02a1.03 1.03 0 0 1 1.03-1.03l18.97-.03Z"/><rect width="19.96" height="20" x="-9.98" y="-10" fill="#eee" rx=".87" transform="rotate(.1 -17169.474 28645.699)"/><rect width="19.96" height="20" x="-9.98" y="-10" fill="#eee" rx=".87" transform="rotate(.1 -17149.474 51564.005)"/><rect width="19.98" height="20" x="-9.99" y="-10" fill="#eee" rx=".89" transform="rotate(.2 -8532.233 37251.494)"/><rect width="19.96" height="20" x="-9.98" y="-10" fill="#eee" rx=".87" transform="rotate(.1 -17109.474 97400.617)"/><rect width="19.96" height="20" x="-9.98" y="-10" fill="#eee" rx=".87" transform="rotate(.1 -17089.474 120318.923)"/><path fill="#eee" d="m79.99 60.1-19.47-.08q-.52 0-.52-.53V41a1 1 0 0 1 1-1h18.26a.67.67 0 0 1 .67.67l.06 19.43ZM120.6 59.89l18.82.15a.6.6 0 0 1 .6.6l-.06 18.77a.6.6 0 0 1-.6.6l-18.76.08a.6.6 0 0 1-.6-.6V60.6a.6.6 0 0 0-.6-.6h-18.8a.6.6 0 0 1-.6-.6V40.6a.6.6 0 0 1 .6-.6h18.8a.6.6 0 0 1 .6.6v18.69a.6.6 0 0 0 .6.6Z"/><rect width="20" height="20" x="-10" y="-10" fill="#eee" rx=".77" transform="rotate(.1 -28572.882 85968.647)"/><rect width="20" height="20" x="-10" y="-10" fill="#eee" rx=".85" transform="rotate(-.1 28742.882 -108836.953)"/><path fill="#eee" d="m220.13 80.21-19.65-.24q-.48-.01-.48-.49V61.06q0-1.18 1.19-1.17l18.29.15q.52.01.52-.52V41.25q0-1.25 1.25-1.25h18.11q.6 0 .61.61l.04 18.72a.66.66 0 0 1-.66.67h-18.62q-.66 0-.66.66l.06 19.55ZM0 79.8V61.22l.29-.97a.57.56-81.2 0 1 .55-.41l18.26.23a.97.97 0 0 1 .96.97l-.09 18.47q0 .42-.42.42L0 79.8Z"/><rect width="19.98" height="20.06" x="-9.99" y="-10.03" fill="#eee" rx=".6" transform="rotate(.2 -20025.638 14358.925)"/><path fill="#eee" d="m79.99 60.1 19.37-.14a.64.64 0 0 1 .64.64v18.78q0 .63-.63.63l-18.79.12q-.57 0-.57-.56l-.02-19.47ZM159.86 91.25c-7.83-.08-13.98-.92-18.94 4.81q-1.7-6.88-.76-15.1.13-1.12 1.26-1.11l18.05.21q.53.01.53-.53V60.72a.79.78-90 0 1 .78-.79l18.58.09a.65.64 90 0 1 .64.65v17.92a1.41 1.41 0 0 1-1.41 1.41h-17.78q-.84 0-.84.83l-.11 10.42ZM260 60v19.91l-19.42-.06q-.58 0-.58-.57V61a.99.99 0 0 1 .99-.99L260 60ZM40.41 91.9q-5.67 3.02-7.62 8.4l-12.18-.2q-.61-.01-.61-.61V80.96a1.04 1.04 0 0 1 1.04-1.04l17.83.11a1.25 1.25 0 0 1 1.24 1.22l.3 10.65ZM201.72 94.07q-2.67 2.44-4.01 5.97l-15.83.02a1.63 1.62 89.1 0 1-1.63-1.59l-.33-17.21a1.3 1.3 0 0 1 1.32-1.33l17.99.18a1.09 1.09 0 0 1 1.06 1.29q-1.36 7.38 1.43 12.67ZM79.8 91.35l-4.5-.07q-.53-.01-.53.52l-.01 11.99q-1.93-.35-2.65.69-.37-11.71-11.78-13.2-.85-5.45.16-10.84.08-.44.53-.44h18.23a.72.72 0 0 1 .72.73l-.17 10.62ZM120.4 91.69l-6.17 9.17q-4.1-1.71-9.88-.64 0-5.59-5.1-8.51l.8-11.06a.7.7 0 0 1 .7-.65h18.47a.89.89 0 0 1 .89.86l.29 10.83ZM225.22 101.33l-22.25-.12q-.42 0-.27-.4c2.9-7.55 14.91-5.36 21.29-5.29a.76.75 15.8 0 0 .64-.35l1.99-3.23q.39-.64-.35-.64l-6.04-.03-.1-11.06 19.22-.15a.7.69.4 0 1 .7.7l-.19 18.65a.75.74 3.5 0 1-.83.73q-7.76-.86-13.81 1.19Z"/><path fill="#d52329" d="M138.54 115.94c-3.94.91-4.03-1.77-6.01-4.03a1.14 1.14 0 0 0-.86-.39l-11.47.07q-2.22-1.32-3-3.87-.14-.47.35-.47h10.89a.56.56 0 0 0 .48-.86l-5.43-8.87a.87.87 0 0 0-1.48-.01l-11.25 17.62q-.32.5-.91.54l-3.87.29a.78.78 0 0 1-.72-1.2l8.97-13.9 6.17-9.17q3.6-1.65 5.47 1.17 7.16 10.75 14.26 21.75a1.22.98-47.8 0 1-.07 1.2q-.25.39-1.52.13ZM158.57 111.51l9.24.06a.44.44 0 0 1 .38.66l-1.74 3.05a.88.87-76.2 0 1-.72.44l-4.8.26c-5.76.08-13.08.87-17.68-2.78-5.43-4.32-6.2-11.32-2.33-17.14 4.96-5.73 11.11-4.89 18.94-4.81l7.47-.09a.46.45 12.8 0 1 .42.65l-1.46 3.03q-.26.54-.86.57c-4.49.19-13.92-.6-17.69 1.18-5.75 2.71-5.89 10.77-.31 13.85 2.91 1.61 7.57 1.09 11.14 1.07ZM60.33 91.28q11.41 1.49 11.78 13.2c-1.21 8.34-6.22 11.06-14.3 11.4-11.87.51-26.74 1.71-25.02-15.58q1.95-5.38 7.62-8.4 9.82-1.1 19.92-.62Zm6.951 11.892a7.43 7.43 0 0 0-7.404-7.456l-14.98-.052a7.43 7.43 0 0 0-7.455 7.404l-.003.84a7.43 7.43 0 0 0 7.404 7.456l14.98.052a7.43 7.43 0 0 0 7.455-7.404l.003-.84ZM79.8 91.35l19.45.36q5.1 2.92 5.1 8.51-1.26 7.52-9.76 7.93a.21.21 0 0 0-.12.37l8.11 6.66a.5.5 0 0 1-.34.88l-5.72-.22a.8.77 65.5 0 1-.48-.19l-13.42-11.51a.4.4 0 0 1 .27-.7c3.26.06 12.24.87 14.88-.57 3.13-1.7 1.81-7.14-2.05-7.14-5.2 0-10.32-.38-15.54-.16q-.6.03-.6.63l-.12 18.77a.88.88 0 0 1-.92.88l-3.33-.15q-.45-.02-.45-.47v-11.44l.01-11.99q0-.53.53-.52l4.5.07ZM178.86 116l-5.89-.2a2.08 2.08 0 0 1-2.01-2.07l-.06-19.48q-.37-1.3-.05-2.5.13-.5.65-.5h3.48q.73 0 .74.73l.1 18.93a.59.59 0 0 0 .59.59h20.79a.58.58 0 0 1 .49.89l-1.77 2.88q-.25.4-.72.41l-16.34.32ZM220.23 91.27l6.04.03q.74 0 .35.64l-1.99 3.23a.76.75 15.8 0 1-.64.35c-6.38-.07-18.39-2.26-21.29 5.29q-.15.4.27.4l22.25.12q-.5 2.7-2.2 4.11a1.26 1.24-64.5 0 1-.8.29l-18.95.06a.72.71 76.4 0 0-.63 1.04c3.6 6.98 17.25 4.63 24.11 4.69q.7.01.34.62l-1.77 2.95q-.28.47-.82.53c-10.84 1.19-30.13 2.27-26.79-15.58q1.34-3.53 4.01-5.97c5.63-3.83 10.54-2.89 18.51-2.8Z"/><path fill="#eee" d="m170.9 94.25.06 19.48a2.08 2.08 0 0 0 2.01 2.07l5.89.2.42 2.15a1.58 1.57-2.1 0 1-1.73 1.86q-8.12-.95-16.26-.02a.74.73 69.6 0 1-.69-.32q-.92-1.34.33-3.69l4.8-.26a.88.87-76.2 0 0 .72-.44l1.74-3.05a.44.44 0 0 0-.38-.66l-9.24-.06q2.3-4.69 1.01-9.63a1.15 1.15 0 0 1 .85-1.41q5.06-1.17 9.8.4.51.16.52-.37l.15-6.25Z"/><rect width="29.84" height="15.7" x="-14.92" y="-7.85" fill="#eee" rx="7.43" transform="rotate(.2 -29635.815 15051.79)"/><path fill="#eee" d="M0 119.8v-18.58l.29-.98a.59.59 0 0 1 .56-.41l18.53.24a.63.63 0 0 1 .62.63l-.01 18.62a.64.64 0 0 1-.64.64L0 119.8ZM260 100.07v19.67l-19.42.11q-.58 0-.58-.58v-18.03a1.22 1.22 0 0 1 1.22-1.22l18.78.05ZM120.2 111.59l11.47-.07a1.14 1.14 0 0 1 .86.39c1.98 2.26 2.07 4.94 6.01 4.03q1.02 1.89.79 3.35-.1.65-.75.65l-17.88-.05q-.65 0-.64-.65l.14-7.65ZM119.61 130.25l-19.73.05-.07-9.24q0-.51.49-.65c4.44-1.28 9.23-.42 12.62-.43q3.07-.01 6.18.04.52 0 .59.51.74 4.87-.08 9.72ZM39.85 130l-6.73.12q-.66.01-.63.67l.04.76q.03.61.64.62l6.62.02.24 7.74-19.12.07a.96.96 0 0 1-.96-.96l.07-18.54a.48.48 0 0 1 .48-.48l18.78-.06a.88.87.9 0 1 .88.9l-.31 9.14ZM85.01 130.09l-24.92-.14-.09-8.76a1.3 1.29-.2 0 1 1.3-1.3l17.11.11a1.64 1.64 0 0 1 1.63 1.66l-.12 7.9q-.01.43.43.44l4.66.09ZM219.17 132.11l7.8-.09a.57.57 0 0 0 .53-.74l-.14-.45q-.18-.57-.78-.57l-6.95-.03.34-8.03q.1-2.4 2.51-2.37l16.89.2q.58.01.58.59l.03 18.77q0 .61-.62.61h-18.37a1.22 1.21-84.2 0 1-1.19-1.46q1.09-5.34-.63-6.43ZM159.99 130.22l-20.42.02.37-8.62a1.55 1.54-88.3 0 1 1.56-1.48l17.31.16a1.19 1.19 0 0 1 1.18 1.19v8.73ZM199.94 130.15l-20.19-.22.29-8.74q.01-.51.49-.66 1.87-.58 3.78-.44c4.64.35 9.35.13 14.21-.17a1.34 1.34 0 0 1 1.42 1.33v8.9Z"/><path fill="#515052" d="m39.85 130 20.24-.05 24.92.14 14.87.21 19.73-.05 19.96-.01 20.42-.02 19.76-.29 20.19.22 19.69.08 6.95.03q.6 0 .78.57l.14.45a.57.57 0 0 1-.53.74l-7.8.09-19.27.01-19.76.06-20.15-.23-21.27.07-6.17.04q-2.89-.74-5.84.01l-6.48-.04-19.9.07-18.32.03-21.73.01-20.49.05-6.62-.02q-.61-.01-.64-.62l-.04-.76q-.03-.66.63-.67l6.73-.12Z"/><path fill="#eee" d="m132.55 132.06-5.84.01q2.95-.75 5.84-.01ZM82.01 132.13l-1.54.13q-.47.05-.47.52v6.52q0 1.05-1.05 1.03l-17.92-.35q-1.09-.02-1.05-1.12l.3-6.72 21.73-.01ZM120.23 132.03l-.22 7.5a.54.53.5 0 1-.54.52l-18.02-.07q-1.59 0-1.5-1.6l.38-6.28 19.9-.07ZM138.72 132.02l21.27-.07-.05 7.54a.76.76 0 0 1-.77.75l-18.51-.18a.83.82-86.5 0 1-.81-.92l.72-6.29q.05-.49-.43-.58l-1.42-.25ZM199.9 132.12l.04 7.41q0 .48-.48.48l-18.21-.03q-1.31-.01-1.27-1.31l.16-6.49 19.76-.06ZM32.53 160.9l.07 6.98q0 .6.6.6l6.87.05-.39 10.81q-.03.69-.72.69l-18.08.04q-.8 0-.81.8l-.22 18.43a.67.67 0 0 1-.67.66L0 199.82v-19.64l18.63-.14a1.34 1.33-.2 0 0 1.33-1.33l.06-18.18q0-.54-.55-.55L0 159.83v-19.59l18.99-.15a1.01 1.01 0 0 1 1.02 1.02l-.28 17.3q-.03 1.8 1.77 1.64 5.13-.46 11.03.85ZM61.97 155.7l-1.31 4.32-12.44.01c1.06-6.11-.15-13.92-7.94-14.31l-.25-5.79 18.83.09a1.06 1.06 0 0 1 1.06 1.05l.09 13.39q0 .69.66.87l1.3.37ZM260 140.03v19.82l-19.46.11q-.54 0-.54-.53v-18.37q0-1.19 1.19-1.18l18.81.15ZM98.41 145.76l-15.05.01a.61.61 0 0 0-.61.65l.2 2.85q.04.48.52.48h4.52q.5 0 .5.5l.01 9.59-6.23.23a2.19 2.19 0 0 1-2.27-2.24l.41-16.88a.97.96-89.4 0 1 .96-.95h17.59q.49 0 .69.44 1.46 3.18-1.24 5.32ZM139.82 145.82l-5.69.03q-.61 0-.61.6l-.01 13.34-12.7.4-2.89-9.68q1.89.24 1.87-.74-.09-4.61.38-9.25.05-.51.56-.51h18.24q.46 0 .68.42 1.13 2.16.17 5.39ZM186.66 161.28c-.11 7.24 7.06 9.21 12.59 6.55l.48 11.7q.02.56-.53.56l-18.68-.05q-.77 0-.69-.77.33-3.53.23-6.96c-.08-2.77.59-7.42-.43-11.11q-.14-.5-.61-.71-2.13-1-4.2.05l-3.87-13.12a2.84 2.84 0 0 0-5.46.02l-5.93 20.73q.83 5.82-.02 11.38-.07.45-.52.45h-18.51a.48.48 0 0 1-.48-.48l-.09-11.03c2.14-.2 4.66.12 6.44-1.14q3.36-2.37 2.84-7.07l9.54-.45a1.79 1.79 0 0 0 1.71-1.84l-.44-16.74a1.22 1.21-.9 0 1 1.22-1.25h17.5a1.25 1.25 0 0 1 1.25 1.25v18.02a.83.82-80.6 0 0 .55.78q1.47.52 2.99.1a1.03.99-39.5 0 1 .69.05l2.43 1.08Z"/><path d="M199.25 167.83c-5.53 2.66-12.7.69-12.59-6.55l3.08.24q.51.04.65.53c2.04 7.14 12.87.27 5.49-2.36-3.68-1.31-8.17-1.29-8.86-6.23-1.36-9.81 12.86-11.66 14.48-1.58a.54.53-4.6 0 1-.53.62h-2.96a.52.52 0 0 1-.52-.53c.11-3.6-5.26-3.37-6.65-1.16a2.13 2.13 0 0 0 1.12 3.15l7.83 2.65a1.18 1.17-8.3 0 1 .54.4q4.18 5.57-1.08 10.82ZM40.28 145.72c7.79.39 9 8.2 7.94 14.31q-1.06 8.12-8.15 8.5l-6.87-.05q-.6 0-.6-.6l-.07-6.98v-14.6q0-.53.53-.53l7.22-.05Zm-4 4.68-.02 13.38a.71.71 0 0 0 .71.71l3.08.01a6 4.45-89.9 0 0 4.46-5.99v-2.8a6 4.45-89.9 0 0-4.44-6.01l-3.08-.01a.71.71 0 0 0-.71.71ZM73.93 161.11l1.88 6.67a.56.56 0 0 1-.54.72H72.3a.7.69 83 0 1-.67-.53l-.85-3.66q-.13-.56-.71-.56h-6.08a.64.63-86.4 0 0-.63.56q-.52 4.5-2.94 4.27l-1.66-.13q-.62-.05-.44-.64l2.34-7.79 1.31-4.32 2.44-8.33a2.85 2.84 45 0 1 5.46 0l4.06 13.74Zm-9.08-1.76a.32.32 0 0 0 .31.41l3.87-.01a.32.32 0 0 0 .31-.4l-1.95-7.21a.32.32 0 0 0-.62 0l-1.92 7.21ZM98.41 145.76q-.54 2.19.36 3.82l-5.59.21q-.6.02-.61.63l-.03 9.94-.04 7.45q0 .69-.69.69h-2.76q-.52 0-.52-.52l-.03-8.14-.01-9.59q0-.5-.5-.5h-4.52q-.48 0-.52-.48l-.2-2.85a.61.61 0 0 1 .61-.65l15.05-.01ZM117.92 150.51l2.89 9.68 2.13 7.6q.17.61-.45.66l-2.68.21q-1.55-1.2-1.93-4.37-.07-.54-.62-.54h-5.99q-.52 0-.67.5l-1.05 3.56q-.2.68-.91.68h-2.75q-.69 0-.49-.66l1.83-6.09 4.64-15.37q.19-.62.84-.62h3.09q.6 0 .78.57l1.34 4.19Zm-5.94 8.84a.32.32 0 0 0 .3.4l3.8.03a.32.32 0 0 0 .31-.4l-1.85-7.36a.32.32 0 0 0-.62-.01l-1.94 7.34ZM139.82 145.82c6.49-.72 11.97 3.68 7.16 10.06a.57.57 0 0 0 .07.77q1.71 1.5 2.17 3.63.52 4.7-2.84 7.07c-1.78 1.26-4.3.94-6.44 1.14l-5.82-.08q-.6-.01-.6-.6l-.01-8.02.01-13.34q0-.6.61-.6l5.69-.03Zm4.785 5.007a1.05 1.05 0 0 0-1.054-1.046l-5.06.018a1.05 1.05 0 0 0-1.046 1.053l.01 2.8a1.05 1.05 0 0 0 1.054 1.047l5.06-.018a1.05 1.05 0 0 0 1.046-1.054l-.01-2.8Zm-7.355 8.683.07 4.08a.98.98 0 0 0 .99.96l4.14-.07a2.88 2.86 89 0 0 2.81-2.93v-.28a2.88 2.86 89 0 0-2.91-2.83l-4.14.07a.98.98 0 0 0-.96 1ZM174.82 160.54l2.15 7.33q.19.63-.47.63h-3.09a.74.74 0 0 1-.72-.56l-.91-3.52a.89.89 0 0 0-.86-.67h-5.7q-.55 0-.7.53l-.99 3.51q-.14.5-.65.63-1.33.36-3.32-.25l5.93-20.73a2.84 2.84 0 0 1 5.46-.02l3.87 13.12Zm-9.03-.97a.33.33 0 0 0 .31.42l4.06.02a.33.33 0 0 0 .32-.41l-1.98-7.46a.33.33 0 0 0-.63 0l-2.08 7.43ZM226.21 158.55l-8.72.05q-.54 0-.53.55l.06 4.61q.01.49.49.49h9.24q.75 0 .75.75v2.95q0 .56-.56.56h-6.9l-6.27-.02q-.43-.01-.44-.44l-.3-21.43q-.02-.87.85-.87h12.62q.5 0 .5.5v3q0 .5-.5.5h-8.83a.66.66 0 0 0-.66.65l-.02 3.52q0 .49.49.51l8.22.28q.54.02.53.55l-.02 3.29Z"/><path fill="#eee" d="M98.77 149.58q1.98 4.17 1.01 9.91-.08.47-.56.5l-6.68.37.03-9.94q.01-.61.61-.63l5.59-.21Z"/><path fill="#fff" d="M36.28 150.4a.71.71 0 0 1 .71-.71l3.08.01a6 4.45-89.9 0 1 4.44 6.01v2.8a6 4.45-89.9 0 1-4.46 5.99l-3.08-.01a.71.71 0 0 1-.71-.71l.02-13.38Z"/><rect width="7.16" height="4.9" x="-3.58" y="-2.45" fill="#fff" rx="1.05" transform="rotate(-.2 43684.018 -40325.958)"/><path fill="#fff" d="m64.85 159.35 1.92-7.21a.32.32 0 0 1 .62 0l1.95 7.21a.32.32 0 0 1-.31.4l-3.87.01a.32.32 0 0 1-.31-.41ZM111.98 159.35l1.94-7.34a.32.32 0 0 1 .62.01l1.85 7.36a.32.32 0 0 1-.31.4l-3.8-.03a.32.32 0 0 1-.3-.4Z"/><path fill="#eee" d="m165.79 159.57 2.08-7.43a.33.33 0 0 1 .63 0l1.98 7.46a.33.33 0 0 1-.32.41l-4.06-.02a.33.33 0 0 1-.31-.42Z"/><path fill="#fff" d="M137.25 159.51a.98.98 0 0 1 .96-1l4.14-.07a2.88 2.86 89 0 1 2.91 2.83v.28a2.88 2.86 89 0 1-2.81 2.93l-4.14.07a.98.98 0 0 1-.99-.96l-.07-4.08Z"/><path fill="#eee" d="m226.21 158.55 1.21.97q.38.31.88.33l11.18.35a.53.53 0 0 1 .52.53v18.49a.78.78 0 0 1-.78.78H220.5q-.48 0-.48-.49l.02-11h6.9q.56 0 .56-.56V165q0-.75-.75-.75h-9.24q-.48 0-.49-.49l-.06-4.61q-.01-.55.53-.55l8.72-.05Z"/><path fill="#fff" d="m0 159.83 19.47.15q.55.01.55.55l-.06 18.18a1.34 1.33-.2 0 1-1.33 1.33L0 180.18v-20.35Z"/><path fill="#eee" d="M60.42 168.58q2.42.23 2.94-4.27a.64.63-86.4 0 1 .63-.56h6.08q.58 0 .71.56l.85 3.66a.7.69 83 0 0 .67.53h2.97a.56.56 0 0 0 .54-.72l-1.88-6.67q2.64-1.71 5.2-.92.65.2.65.88l.09 18.37q0 .56-.56.56H60.53q-.45 0-.47-.45-.16-3.96-.29-7.86-.04-1.18.77-1.99.35-.35.15-.81-.09-.19-.27-.31ZM107.23 161.74l-1.83 6.09q-.2.66.49.66h2.75q.71 0 .91-.68l1.05-3.56q.15-.5.67-.5h5.99q.55 0 .62.54.38 3.17 1.93 4.37l.04 10.48q0 .98-.98.98l-18.33-.02q-.56 0-.56-.56l.06-18.95q0-.62.62-.57l3.7.31q.53.05.77.52.59 1.13 2.1.89ZM260 180v19.87l-19.52.09q-.49.01-.49-.48l.02-18.8a.66.66 0 0 1 .66-.66L260 180Z"/><rect width="19.96" height="20" x="-9.98" y="-10" fill="#eee" rx=".92" transform="rotate(.1 -108842.693 28731.428)"/><rect width="19.98" height="20" x="-9.99" y="-10" fill="#eee" rx=".94" transform="rotate(.3 -36242.25 17281.785)"/><rect width="19.96" height="20" x="-9.98" y="-10" fill="#eee" rx=".86" transform="rotate(.2 -54365.95 37328.625)"/><rect width="19.96" height="20" x="-9.98" y="-10" fill="#eee" rx=".87" transform="rotate(.2 -54345.95 48787.769)"/><rect width="19.94" height="20" x="-9.97" y="-10" fill="#eee" rx=".7" transform="rotate(.2 -54325.94 60252.643)"/><rect width="20" height="20" x="-10" y="-10" fill="#eee" rx=".85" transform="rotate(-.1 120336.106 -17083.73)"/><rect width="20" height="20" x="-10" y="-10" fill="#eee" rx=".85" transform="rotate(.1 -120286.106 40212.035)"/><rect width="20" height="20" x="-10" y="-10" fill="#eee" rx=".88" transform="rotate(.1 -120266.106 63130.341)"/><rect width="20" height="20" x="-10" y="-10" fill="#eee" rx=".88" transform="rotate(.1 -120246.106 86048.647)"/><rect width="20" height="20" x="-10" y="-10" fill="#eee" rx=".88" transform="rotate(.1 -120226.106 108966.953)"/><rect width="20" height="20" x="-10" y="-10" fill="#eee" rx=".82" transform="rotate(-.1 120436.106 -131675.26)"/><path fill="#eee" d="M39.98 239.97 39.77 260H21.72l-1.19-.3q-.53-.13-.53-.68v-18.16a.98.98 0 0 0-.97-.98L0 239.78v-18.56l.29-.98a.56.56 0 0 1 .55-.4l18.04.23A1.13 1.13 0 0 1 20 221.2v17.06a1.64 1.64 0 0 0 1.63 1.64l18.35.07ZM260 220v19.87l-19.52.09q-.48.01-.48-.48V221a.99.99 0 0 1 .99-.99L260 220Z"/><path fill="#eee" d="m39.98 239.97.02-18.98a.99.99 0 0 1 .99-.99h18a.99.98-90 0 1 .98.99l-.08 18.37q0 .6-.6.6l-19.31.01ZM79.98 239.99l.02-19a.99.99 0 0 1 .99-.99h17.89a1.12 1.12 0 0 1 1.12 1.13l-.12 18.25q-.01.58-.59.58l-19.31.03ZM119.98 239.99l.02-19a.99.99 0 0 1 .99-.99h17.89a1.12 1.12 0 0 1 1.12 1.13l-.12 18.25q-.01.58-.59.58l-19.31.03ZM159.98 239.99l.02-19a.99.99 0 0 1 .99-.99h17.89a1.12 1.12 0 0 1 1.12 1.13l-.12 18.25q-.01.58-.59.58l-19.31.03ZM199.98 239.99l.02-19a.99.99 0 0 1 .99-.99h17.99a.98.98 0 0 1 .98.98l-.07 18.38q0 .6-.6.6l-19.31.03Z"/><path fill="#fff" d="m0 239.78 19.03.1a.98.98 0 0 1 .97.98v18.16q0 .55.53.68l1.19.3H0v-20.22Z"/><path fill="#eee" d="M79.98 239.99 79.77 260H64.22l-3.63-.36q-.59-.06-.59-.65v-18a.99.99 0 0 1 .99-.99l18.99-.01ZM119.98 239.99l-.21 20.01h-15.55l-3.63-.36q-.59-.06-.59-.65v-18a.99.99 0 0 1 .99-.99l18.99-.01ZM159.98 239.99l-.21 20.01h-15.55l-3.63-.36q-.59-.06-.59-.65v-18a.99.99 0 0 1 .99-.99l18.99-.01ZM199.98 239.99l-.21 20.01h-15.55l-3.63-.36q-.59-.06-.59-.65v-18a.99.99 0 0 1 .99-.99l18.99-.01ZM239.73 260h-15.51l-3.62-.36q-.6-.06-.6-.66V241a1 1 0 0 1 1-1h18.27q.61 0 .61.61l-.15 19.39Z"/></svg>